<svg xmlns="http://www.w3.org/2000/svg" fill="none" viewBox="0 0 80 80" >
    <g clip-path="url(#i389236776__a)">
    <ellipse cx="39.5" cy="39.5" fill="#fff" rx="31.5" ry="30.5"></ellipse>
    <path fill="#1296DB"
        d="m53.08 58.349 6.563-30.938c.58-2.722-.983-3.794-2.769-3.125L18.303 39.15c-2.635 1.026-2.589 2.5-.446 3.169l9.866 3.08 22.903-14.42c1.071-.714 2.054-.311 1.251.403l-18.526 16.74-.714 10.18c1.026 0 1.474-.446 2.009-.983l4.82-4.643 10 7.366c1.831 1.026 3.126.491 3.617-1.697l-.003.003ZM80 40c0 22.097-17.903 40-40 40S0 62.097 0 40 17.903 0 40 0s40 17.903 40 40Z">
    </path>
    </g>
    <defs>
    <clipPath id="i389236776__a">
        <path fill="#fff" d="M0 0h80v80H0z"></path>
    </clipPath>
    </defs>
</svg>